<?xml version="1.0" encoding="UTF-8" standalone="no"?>
<svg
   xmlns:dc="http://purl.org/dc/elements/1.1/"
   xmlns:cc="http://creativecommons.org/ns#"
   xmlns:rdf="http://www.w3.org/1999/02/22-rdf-syntax-ns#"
   xmlns:svg="http://www.w3.org/2000/svg"
   xmlns="http://www.w3.org/2000/svg"
   id="svg852"
   version="1.1"
   viewBox="0 0 33.866666 33.866666"
   height="128"
   width="128">
  <defs
     id="defs846" />
  <metadata
     id="metadata849">
    <rdf:RDF>
      <cc:Work
         rdf:about="">
        <dc:format>image/svg+xml</dc:format>
        <dc:type
           rdf:resource="http://purl.org/dc/dcmitype/StillImage" />
        <dc:title></dc:title>
      </cc:Work>
    </rdf:RDF>
  </metadata>
  <g
     transform="translate(0,-263.13334)"
     id="layer1">
    <g
       transform="matrix(0.49331217,0,0,0.49331217,-35.649512,239.10595)"
       id="g7285">
      <path
         style="fill:#000000;fill-opacity:1;stroke:none;stroke-width:1.21715128;stroke-linecap:round;stroke-linejoin:round;stroke-miterlimit:4;stroke-dasharray:none;stroke-opacity:1;paint-order:normal"
         d="m 105.90164,48.711977 -0.83613,2.052071 -0.35656,1.974038 0.005,0.07028 -2.06241,0.203605 -0.009,-0.07028 -0.73484,-1.866554 -1.22008,-1.849501 -1.472777,0.293008 -0.41961,2.176092 0.0351,2.005047 0.0186,0.06821 -1.98334,0.60203 -0.0227,-0.06718 -1.08469,-1.687237 -1.55752,-1.575612 -1.38752,0.57464 0.0129,2.215886 0.42582,1.95957 0.031,0.06356 -1.82728,0.977199 -0.0357,-0.0615 -1.3932,-1.442805 -1.83503,-1.241784 -1.248503,0.834056 0.444934,2.170928 0.799952,1.839163 0.04289,0.05633 -1.60197,1.314649 -0.04651,-0.05323 -1.64796,-1.143601 -2.041736,-0.859896 -1.061951,1.061953 0.859896,2.042253 1.143082,1.647444 0.05323,0.04702 -1.314648,1.60197 -0.05633,-0.04341 -1.839164,-0.799951 -2.170411,-0.444934 -0.834573,1.248502 1.241785,1.835547 1.443321,1.39268 0.06098,0.03566 -0.976683,1.827795 -0.06356,-0.03152 -1.960087,-0.425813 -2.215369,-0.01292 -0.575157,1.387512 1.576131,1.557528 1.686719,1.084689 0.06718,0.02274 -0.601512,1.983343 -0.06822,-0.01861 -2.005563,-0.03514 -2.175576,0.419613 -0.293005,1.472779 1.849499,1.220597 1.866037,0.734322 0.07028,0.0093 -0.203089,2.062409 -0.0708,-0.0041 -1.973522,0.356568 -2.052071,0.835607 v 1.502235 l 2.052071,0.835607 1.973522,0.356566 0.0708,-0.0046 0.203089,2.062406 -0.07028,0.0098 -1.866037,0.734322 -1.849499,1.220597 0.293005,1.472779 2.175576,0.419611 2.005563,-0.03565 0.06822,-0.01809 0.601512,1.98334 -0.06718,0.02274 -1.686719,1.084689 -1.576131,1.557528 0.575157,1.387512 2.215369,-0.01292 1.960087,-0.425812 0.06356,-0.03153 0.976683,1.827797 -0.06098,0.03565 -1.443321,1.392682 -1.241785,1.835029 0.834573,1.24902 2.170411,-0.44494 1.839164,-0.79995 0.05633,-0.0434 1.314648,1.60197 -0.05323,0.047 -1.143082,1.64745 -0.859896,2.04225 1.061951,1.06195 2.041736,-0.8599 1.64796,-1.1436 0.04651,-0.0532 1.60197,1.31464 -0.04289,0.0563 -0.799952,1.83917 -0.444934,2.17092 1.248503,0.83406 1.83503,-1.24178 1.3932,-1.44281 0.0357,-0.0615 1.82728,0.9772 -0.031,0.0636 -0.42582,1.95957 -0.0129,2.21588 1.38752,0.57465 1.55752,-1.57562 1.08469,-1.68723 0.0227,-0.0672 1.98334,0.60151 -0.0186,0.0687 -0.0351,2.00505 0.41961,2.17609 1.472777,0.29301 1.22008,-1.8495 0.73484,-1.86656 0.009,-0.0703 2.06241,0.20308 -0.005,0.0708 0.35656,1.97352 0.83613,2.05207 h 1.50171 l 0.83613,-2.05207 0.35657,-1.97352 -0.005,-0.0708 2.0624,-0.20308 0.009,0.0703 0.73484,1.86656 1.22008,1.8495 1.4733,-0.29301 0.41961,-2.17609 -0.0357,-2.00505 -0.0181,-0.0687 1.98282,-0.60151 0.0233,0.0672 1.08468,1.68723 1.55753,1.57562 1.38751,-0.57465 -0.0129,-2.21588 -0.42581,-1.95957 -0.0315,-0.0636 1.82779,-0.9772 0.0357,0.0615 1.39268,1.44281 1.83503,1.24178 1.24902,-0.83406 -0.44493,-2.17092 -0.80047,-1.83917 -0.0429,-0.0563 1.60197,-1.31464 0.047,0.0532 1.64745,1.1436 2.04225,0.8599 1.06195,-1.06195 -0.8599,-2.04225 -1.14359,-1.64745 -0.0532,-0.047 1.31465,-1.60197 0.0563,0.0434 1.83917,0.79995 2.17041,0.44494 0.83457,-1.24902 -1.24178,-1.835029 -1.44281,-1.392682 -0.0615,-0.03565 0.97668,-1.827797 0.0641,0.03153 1.95957,0.425812 2.21589,0.01292 0.57464,-1.387512 -1.57613,-1.557528 -1.68672,-1.084689 -0.0672,-0.02274 0.60151,-1.98334 0.0687,0.01809 2.00505,0.03565 2.17558,-0.419611 0.293,-1.472779 -1.8495,-1.220597 -1.86604,-0.734322 -0.0703,-0.0098 0.20308,-2.062406 0.0708,0.0046 1.97352,-0.356566 2.05207,-0.835607 v -1.502235 l -2.05207,-0.835607 -1.97352,-0.356568 -0.0708,0.0041 -0.20308,-2.062409 0.0703,-0.0093 1.86604,-0.734322 1.8495,-1.220597 -0.293,-1.472779 -2.17558,-0.419613 -2.00505,0.03514 -0.0687,0.01861 -0.60151,-1.983343 0.0672,-0.02274 1.68672,-1.084689 1.57613,-1.557528 -0.57464,-1.387512 -2.21589,0.01292 -1.95957,0.425813 -0.0641,0.03152 -0.97668,-1.827795 0.0615,-0.03566 1.44281,-1.39268 1.24178,-1.835547 -0.83457,-1.248502 -2.17041,0.444934 -1.83917,0.799951 -0.0563,0.04341 -1.31465,-1.60197 0.0532,-0.04702 1.14359,-1.647444 0.8599,-2.042253 -1.06195,-1.061953 -2.04225,0.859896 -1.64745,1.143601 -0.047,0.05323 -1.60197,-1.314649 0.0429,-0.05633 0.80047,-1.839163 0.44493,-2.170928 -1.24902,-0.834056 -1.83503,1.241784 -1.39268,1.442805 -0.0357,0.0615 -1.82779,-0.977199 0.0315,-0.06356 0.42581,-1.95957 0.0129,-2.215886 -1.38751,-0.57464 -1.55753,1.575612 -1.08468,1.687237 -0.0233,0.06718 -1.98282,-0.60203 0.0181,-0.06821 0.0357,-2.005047 -0.41961,-2.176092 -1.4733,-0.293008 -1.22008,1.849501 -0.73484,1.866554 -0.009,0.07028 -2.0624,-0.203605 0.005,-0.07028 -0.35657,-1.974038 -0.83613,-2.052071 z m 0.79582,7.323585 a 2.0953876,2.0953876 0 0 1 2.04483,2.144569 2.0953876,2.0953876 0 0 1 -2.14457,2.044838 2.0953876,2.0953876 0 0 1 -2.04484,-2.144572 2.0953876,2.0953876 0 0 1 2.14458,-2.044835 z m -4.44986,2.279962 c 0.0414,0.137885 0.11082,0.269407 0.21755,0.381373 l 3.4153,3.585826 c 0.36067,0.378505 0.95753,0.392936 1.33583,0.03204 l 3.5817,-3.419946 c 0.16722,-0.159522 0.2587,-0.364069 0.28267,-0.575677 7.68989,1.366813 14.1689,6.230977 17.73794,12.888618 -0.16735,0.08845 -0.3106,0.227021 -0.40257,0.410314 l -2.2226,4.425053 c -0.23454,0.46728 -0.0468,1.033854 0.42065,1.268137 l 4.42815,2.217436 c 0.16517,0.08279 0.34149,0.11072 0.5116,0.09457 0.15412,1.125363 0.23409,2.274469 0.23409,3.442165 0,6.765854 -2.67394,12.906754 -7.02179,17.425297 -0.12147,-0.0991 -0.26659,-0.17264 -0.43305,-0.20154 l -4.87877,-0.849562 c -0.51512,-0.08952 -1.0032,0.254296 -1.09244,0.769462 l -0.84336,4.87981 c -0.0373,0.21505 0.004,0.42263 0.0977,0.60048 -3.31348,1.60876 -7.0329,2.51147 -10.96368,2.51147 -3.9306,0 -7.649777,-0.90284 -10.963147,-2.51147 0.0966,-0.17955 0.13898,-0.38984 0.10077,-0.60772 l -0.85318,-4.87825 c -0.0902,-0.515 -0.57853,-0.857902 -1.09347,-0.767399 l -4.877223,0.859379 c -0.163425,0.0287 -0.306385,0.0999 -0.426331,0.19637 -4.348454,-4.518639 -7.022827,-10.659949 -7.022827,-17.426327 0,-1.167394 0.08161,-2.315527 0.235645,-3.440617 0.172239,0.01723 0.351219,-0.01089 0.518314,-0.09508 l 4.423502,-2.22622 c 0.466964,-0.235177 0.654013,-0.801825 0.418579,-1.268656 L 84.881765,71.61394 C 84.790689,71.433399 84.650328,71.296569 84.485894,71.208278 88.058391,64.543532 94.547333,59.676734 102.2476,58.315524 Z m 28.07012,14.952575 a 2.0953934,2.0953934 0 0 1 2.03191,1.435055 2.0953934,2.0953934 0 0 1 -1.3286,2.648934 2.0953934,2.0953934 0 0 1 -2.64841,-1.3286 2.0953934,2.0953934 0 0 1 1.32808,-2.648934 2.0953934,2.0953934 0 0 1 0.61702,-0.106455 z m -47.273598,0.0026 a 2.0953934,2.0953934 0 0 1 0.556037,0.102835 2.0953934,2.0953934 0 0 1 1.33377,2.645834 2.0953934,2.0953934 0 0 1 -2.645833,1.334286 2.0953934,2.0953934 0 0 1 -1.334286,-2.64635 2.0953934,2.0953934 0 0 1 2.090312,-1.436605 z m 38.236418,27.867541 a 2.095391,2.095391 0 0 1 1.74202,0.88832 2.095391,2.095391 0 0 1 -0.50695,2.92024 2.095391,2.095391 0 0 1 -2.9192,-0.50695 2.095391,2.095391 0 0 1 0.50591,-2.9192 2.095391,2.095391 0 0 1 1.17822,-0.38241 z m -29.198727,0.002 a 2.0953909,2.0953909 0 0 1 1.11724,0.37828 2.0953909,2.0953909 0 0 1 0.51263,2.91868 2.0953909,2.0953909 0 0 1 -2.9192,0.51212 2.0953909,2.0953909 0 0 1 -0.51159,-2.91868 2.0953909,2.0953909 0 0 1 1.80092,-0.8904 z"
         id="path7173" />
      <path
         style="color:#000000;font-style:normal;font-variant:normal;font-weight:normal;font-stretch:normal;font-size:medium;line-height:normal;font-family:sans-serif;font-variant-ligatures:normal;font-variant-position:normal;font-variant-caps:normal;font-variant-numeric:normal;font-variant-alternates:normal;font-feature-settings:normal;text-indent:0;text-align:start;text-decoration:none;text-decoration-line:none;text-decoration-style:solid;text-decoration-color:#000000;letter-spacing:normal;word-spacing:normal;text-transform:none;writing-mode:lr-tb;direction:ltr;text-orientation:mixed;dominant-baseline:auto;baseline-shift:baseline;text-anchor:start;white-space:normal;shape-padding:0;clip-rule:nonzero;display:inline;overflow:visible;visibility:visible;opacity:1;isolation:auto;mix-blend-mode:normal;color-interpolation:sRGB;color-interpolation-filters:linearRGB;solid-color:#000000;solid-opacity:1;vector-effect:none;fill:#000000;fill-opacity:1;fill-rule:evenodd;stroke:none;stroke-width:0.96269882;stroke-linecap:butt;stroke-linejoin:round;stroke-miterlimit:4;stroke-dasharray:none;stroke-dashoffset:0;stroke-opacity:1;paint-order:stroke markers fill;color-rendering:auto;image-rendering:auto;shape-rendering:auto;text-rendering:auto;enable-background:accumulate"
         d="m 99.779712,72.8543 -0.0167,20.985869 c 3.3e-4,0.901934 1.326518,1.414307 2.234738,0.868113 l 15.88391,-10.619194 c 0.97529,-0.651018 0.5911,-1.586415 -0.28397,-2.170538 L 102.09798,71.41824 c -1.29236,-0.628483 -2.346278,0.162034 -2.318258,1.43606 z"
         id="rect7278" />
    </g>
  </g>
</svg>
